<svg width="492" height="492" viewBox="0 0 492 492" fill="none" xmlns="http://www.w3.org/2000/svg">
<g filter="url(#filter0_d_120_239)">
<mask id="path-1-inside-1_120_239" fill="white">
<rect width="488" height="488" rx="12"/>
</mask>
<rect width="488" height="488" rx="12" fill="#151C2B" shape-rendering="crispEdges"/>
<rect width="488" height="488" rx="12" stroke="#1E293B" stroke-width="8" shape-rendering="crispEdges" mask="url(#path-1-inside-1_120_239)"/>
<rect x="16.5" y="16.5" width="7" height="7" rx="3.5" stroke="#94A3B8"/>
<rect x="18.9395" y="18.2324" width="4" height="1" transform="rotate(45 18.9395 18.2324)" fill="#94A3B8"/>
<rect x="464.5" y="16.5" width="7" height="7" rx="3.5" stroke="#94A3B8"/>
<rect x="466.939" y="18.2324" width="4" height="1" transform="rotate(45 466.939 18.2324)" fill="#94A3B8"/>
<rect x="16.5" y="464.5" width="7" height="7" rx="3.5" stroke="#94A3B8"/>
<rect x="18.9395" y="466.232" width="4" height="1" transform="rotate(45 18.9395 466.232)" fill="#94A3B8"/>
<rect x="464.5" y="464.5" width="7" height="7" rx="3.5" stroke="#94A3B8"/>
<rect x="466.939" y="466.232" width="4" height="1" transform="rotate(45 466.939 466.232)" fill="#94A3B8"/>
<g filter="url(#filter1_dd_120_239)">
<g clip-path="url(#clip0_120_239)">
<path d="M37 199L76 244L37 289" stroke="#0D59F2" stroke-width="8" stroke-linecap="square"/>
</g>
</g>
<rect x="433" y="184" width="24" height="120" fill="#0D59F2"/>
<rect x="127" y="184" width="24" height="120" fill="white"/>
<rect x="187" y="184" width="24" height="120" fill="white"/>
<rect x="127" y="274" width="24" height="6" fill="#151C2B"/>
<rect x="127" y="280" width="84" height="24" fill="white"/>
<rect width="16" height="80" transform="matrix(1.5 0 0.318835 1.5 209.49 184)" fill="white"/>
<rect width="16" height="80" transform="matrix(1.5 0 -0.318835 1.5 308.51 184)" fill="white"/>
<rect width="15.9968" height="4.00139" transform="matrix(1.40093 0.311868 -0.623736 1.46722 299.709 229.57)" fill="#151C2B"/>
<rect x="331" y="184" width="24" height="120" fill="white"/>
<rect x="331" y="184" width="72" height="24" fill="white"/>
<rect width="40" height="16" transform="matrix(1.5 0 0 1.5 331 232)" fill="white"/>
<rect x="373" y="232" width="6" height="24" fill="#151C2B"/>
</g>
<defs>
<filter id="filter0_d_120_239" x="0" y="0" width="492" height="492" filterUnits="userSpaceOnUse" color-interpolation-filters="sRGB">
<feFlood flood-opacity="0" result="BackgroundImageFix"/>
<feColorMatrix in="SourceAlpha" type="matrix" values="0 0 0 0 0 0 0 0 0 0 0 0 0 0 0 0 0 0 127 0" result="hardAlpha"/>
<feOffset dx="4" dy="4"/>
<feComposite in2="hardAlpha" operator="out"/>
<feColorMatrix type="matrix" values="0 0 0 0 0 0 0 0 0 0 0 0 0 0 0 0 0 0 1 0"/>
<feBlend mode="normal" in2="BackgroundImageFix" result="effect1_dropShadow_120_239"/>
<feBlend mode="normal" in="SourceGraphic" in2="effect1_dropShadow_120_239" result="shape"/>
</filter>
<filter id="filter1_dd_120_239" x="23" y="184" width="76" height="138" filterUnits="userSpaceOnUse" color-interpolation-filters="sRGB">
<feFlood flood-opacity="0" result="BackgroundImageFix"/>
<feColorMatrix in="SourceAlpha" type="matrix" values="0 0 0 0 0 0 0 0 0 0 0 0 0 0 0 0 0 0 127 0" result="hardAlpha"/>
<feOffset dy="10"/>
<feGaussianBlur stdDeviation="4"/>
<feComposite in2="hardAlpha" operator="out"/>
<feColorMatrix type="matrix" values="0 0 0 0 0 0 0 0 0 0 0 0 0 0 0 0 0 0 0.04 0"/>
<feBlend mode="normal" in2="BackgroundImageFix" result="effect1_dropShadow_120_239"/>
<feColorMatrix in="SourceAlpha" type="matrix" values="0 0 0 0 0 0 0 0 0 0 0 0 0 0 0 0 0 0 127 0" result="hardAlpha"/>
<feOffset dy="4"/>
<feGaussianBlur stdDeviation="1.5"/>
<feComposite in2="hardAlpha" operator="out"/>
<feColorMatrix type="matrix" values="0 0 0 0 0 0 0 0 0 0 0 0 0 0 0 0 0 0 0.1 0"/>
<feBlend mode="normal" in2="effect1_dropShadow_120_239" result="effect2_dropShadow_120_239"/>
<feBlend mode="normal" in="SourceGraphic" in2="effect2_dropShadow_120_239" result="shape"/>
</filter>
<clipPath id="clip0_120_239">
<rect width="40" height="80" fill="white" transform="matrix(1.5 0 0 1.5 31 184)"/>
</clipPath>
</defs>
</svg>
